<svg xmlns="http://www.w3.org/2000/svg" viewBox="0 0 160 160"><path d="M133 84c0 38-35 62-66 54C24 127 18 85 35 55c17-29 58-35 83-10 25 24 17 58-7 72-24 14-52 0-55-23-3-22 18-40 36-30 17 9 17 29 4 36-11 6-22-3-18-12" fill="none" stroke="#ead4a7" stroke-width="9" stroke-linecap="round"/><path d="m35 55 17 15m-26 2 23 9m-23 12 26 1m-18 22 25-9m-8 25 19-18m2 27 10-25m15 24-3-25m25 12-14-24m25 5-23-16m25-8-27-3m16-21-19 13m-6-29 1 23m-27-21 11 23" fill="none" stroke="#d7b87e" stroke-width="3" stroke-linecap="round"/></svg>
